<svg width="460" height="451" viewBox="0 0 460 451" fill="none" xmlns="http://www.w3.org/2000/svg">
<path d="M144 51H90.375V219.828C88.725 250.3 52.425 243.162 39.225 229.711L12 268.418C30.975 289.83 65.295 295.76 90.375 289.83C115.455 283.9 143.175 254.417 143.175 230.534L144 51Z" fill="#1C3B8D"/>
<path d="M165 52V288H216.253V150.54L292.307 251.565L363.4 153.025V288H413V52H369.187L289 167.93L210.467 52H165Z" fill="#1C3B8D"/>
<path d="M102.273 337.492C101.641 335.297 100.754 333.358 99.6119 331.674C98.4693 329.961 97.0713 328.517 95.4176 327.345C93.794 326.142 91.9299 325.225 89.8253 324.594C87.7507 323.962 85.4506 323.647 82.9251 323.647C78.2047 323.647 74.0555 324.819 70.4776 327.164C66.9298 329.51 64.1637 332.922 62.1793 337.402C60.195 341.852 59.2028 347.294 59.2028 353.728C59.2028 360.162 60.1799 365.634 62.1342 370.144C64.0885 374.654 66.8546 378.097 70.4325 380.472C74.0104 382.817 78.2347 383.99 83.1055 383.99C87.5252 383.99 91.2985 383.208 94.4254 381.645C97.5824 380.051 99.9877 377.811 101.641 374.925C103.325 372.038 104.167 368.626 104.167 364.687L108.136 365.273H84.3232V350.571H122.973V362.207C122.973 370.325 121.26 377.3 117.832 383.133C114.404 388.936 109.684 393.415 103.671 396.572C97.6576 399.699 90.7724 401.263 83.0153 401.263C74.3562 401.263 66.7494 399.354 60.195 395.535C53.6405 391.687 48.5292 386.23 44.8612 379.164C41.2231 372.068 39.4041 363.65 39.4041 353.908C39.4041 346.422 40.4865 339.747 42.6513 333.884C44.8461 327.991 47.9129 323 51.8516 318.911C55.7902 314.822 60.3754 311.71 65.6069 309.576C70.8384 307.441 76.5059 306.374 82.6094 306.374C87.8409 306.374 92.7116 307.14 97.2216 308.674C101.732 310.177 105.73 312.312 109.218 315.078C112.736 317.844 115.607 321.136 117.832 324.955C120.057 328.743 121.485 332.922 122.116 337.492H102.273ZM181.704 370.505V330.727H200.916V400H182.471V387.417H181.749C180.186 391.476 177.585 394.738 173.947 397.204C170.339 399.669 165.934 400.902 160.733 400.902C156.103 400.902 152.029 399.85 148.511 397.745C144.993 395.64 142.242 392.649 140.258 388.77C138.303 384.892 137.311 380.246 137.281 374.835V330.727H156.494V371.407C156.524 375.496 157.621 378.728 159.786 381.103C161.951 383.479 164.852 384.666 168.49 384.666C170.805 384.666 172.97 384.14 174.984 383.088C176.999 382.005 178.622 380.412 179.855 378.307C181.118 376.203 181.734 373.602 181.704 370.505ZM247.854 401.353C240.728 401.353 234.594 399.91 229.453 397.023C224.342 394.107 220.403 389.988 217.637 384.666C214.871 379.314 213.488 372.985 213.488 365.679C213.488 358.554 214.871 352.3 217.637 346.918C220.403 341.536 224.297 337.342 229.318 334.335C234.369 331.329 240.292 329.825 247.087 329.825C251.657 329.825 255.911 330.562 259.85 332.035C263.819 333.478 267.277 335.658 270.223 338.575C273.2 341.491 275.515 345.159 277.168 349.579C278.822 353.969 279.649 359.11 279.649 365.003V370.279H221.155V358.373H261.564C261.564 355.607 260.963 353.157 259.76 351.022C258.557 348.887 256.889 347.219 254.754 346.016C252.649 344.783 250.199 344.167 247.403 344.167C244.486 344.167 241.901 344.843 239.646 346.196C237.421 347.519 235.677 349.308 234.414 351.563C233.151 353.788 232.505 356.269 232.475 359.005V370.325C232.475 373.752 233.106 376.714 234.369 379.209C235.662 381.705 237.481 383.629 239.826 384.982C242.171 386.335 244.952 387.011 248.169 387.011C250.304 387.011 252.258 386.711 254.032 386.109C255.806 385.508 257.325 384.606 258.587 383.403C259.85 382.201 260.812 380.728 261.474 378.984L279.243 380.156C278.341 384.426 276.492 388.154 273.696 391.341C270.93 394.498 267.352 396.963 262.962 398.737C258.602 400.481 253.566 401.353 247.854 401.353ZM349.824 350.481L332.235 351.563C331.934 350.06 331.288 348.707 330.295 347.504C329.303 346.272 327.995 345.294 326.372 344.573C324.778 343.821 322.869 343.445 320.644 343.445C317.668 343.445 315.157 344.077 313.113 345.339C311.068 346.572 310.046 348.226 310.046 350.3C310.046 351.954 310.707 353.352 312.03 354.495C313.353 355.637 315.623 356.554 318.84 357.246L331.378 359.771C338.113 361.154 343.134 363.379 346.441 366.446C349.748 369.513 351.402 373.542 351.402 378.533C351.402 383.073 350.064 387.056 347.388 390.484C344.742 393.912 341.104 396.587 336.474 398.512C331.874 400.406 326.567 401.353 320.554 401.353C311.384 401.353 304.078 399.444 298.636 395.625C293.224 391.777 290.052 386.545 289.12 379.931L308.016 378.939C308.588 381.735 309.971 383.869 312.165 385.343C314.36 386.786 317.172 387.507 320.599 387.507C323.967 387.507 326.672 386.861 328.717 385.568C330.792 384.245 331.844 382.547 331.874 380.472C331.844 378.728 331.107 377.3 329.664 376.188C328.221 375.045 325.996 374.173 322.989 373.572L310.993 371.181C304.228 369.828 299.192 367.483 295.885 364.146C292.607 360.809 290.969 356.554 290.969 351.383C290.969 346.933 292.171 343.1 294.577 339.882C297.012 336.665 300.425 334.185 304.814 332.441C309.234 330.697 314.405 329.825 320.328 329.825C329.078 329.825 335.963 331.674 340.984 335.373C346.035 339.071 348.982 344.107 349.824 350.481ZM400.346 330.727V345.159H358.629V330.727H400.346ZM368.1 314.131H387.312V378.713C387.312 380.487 387.583 381.87 388.124 382.862C388.665 383.824 389.417 384.501 390.379 384.892C391.371 385.283 392.514 385.478 393.807 385.478C394.709 385.478 395.611 385.403 396.513 385.252C397.415 385.072 398.106 384.937 398.587 384.847L401.609 399.143C400.647 399.444 399.294 399.79 397.55 400.18C395.806 400.601 393.686 400.857 391.191 400.947C386.561 401.127 382.502 400.511 379.014 399.098C375.556 397.685 372.866 395.49 370.941 392.513C369.017 389.537 368.07 385.779 368.1 381.239V314.131Z" fill="#F2CB12"/>
</svg>
